<?xml version="1.0" encoding="UTF-8" standalone="no"?>
<!-- Created with Inkscape (http://www.inkscape.org/) -->

<svg
   width="512.0px"
   height="512.0px"
   viewBox="0 0 512.0 512.0"
   version="1.1"
   id="SVGRoot"
   sodipodi:docname="Veldaz.svg"
   inkscape:version="1.1.1 (3bf5ae0d25, 2021-09-20)"
   inkscape:export-filename="C:\Users\donne\Desktop\Veldaz.png"
   inkscape:export-xdpi="96"
   inkscape:export-ydpi="96"
   xmlns:inkscape="http://www.inkscape.org/namespaces/inkscape"
   xmlns:sodipodi="http://sodipodi.sourceforge.net/DTD/sodipodi-0.dtd"
   xmlns="http://www.w3.org/2000/svg"
   xmlns:svg="http://www.w3.org/2000/svg">
  <sodipodi:namedview
     id="namedview67"
     pagecolor="#000000"
     bordercolor="#666666"
     borderopacity="1.0"
     inkscape:pageshadow="2"
     inkscape:pageopacity="0"
     inkscape:pagecheckerboard="true"
     inkscape:document-units="px"
     showgrid="false"
     inkscape:zoom="1.0998546"
     inkscape:cx="309.13177"
     inkscape:cy="398.68906"
     inkscape:window-width="1847"
     inkscape:window-height="1057"
     inkscape:window-x="452"
     inkscape:window-y="-8"
     inkscape:window-maximized="1"
     inkscape:current-layer="layer1"
     showguides="false">
    <inkscape:grid
       type="xygrid"
       id="grid73" />
  </sodipodi:namedview>
  <defs
     id="defs62" />
  <g
     inkscape:label="Layer 1"
     inkscape:groupmode="layer"
     id="layer1">
    <g
       id="g1419"
       transform="translate(-0.08739384,-16.720832)">
      <path
         id="path120"
         style="fill:#000000;fill-rule:evenodd"
         inkscape:transform-center-y="-54.083269"
         d="M 256,93.75 68.650391,418.25 H 443.34961 Z m 0,62.09766 131.8125,228.30468 h -263.625 z" />
      <path
         id="path476-2"
         style="fill:#000000;stroke-width:1.37014"
         d="M 255.99867,33.491804 A 126.13182,126.13182 0 0 0 129.86819,159.62227 126.13182,126.13182 0 0 0 255.99867,285.75543 126.13182,126.13182 0 0 0 382.13181,159.62227 126.13182,126.13182 0 0 0 255.99867,33.491804 Z m 0,31.14392 a 94.988162,94.988162 0 0 1 94.98922,94.986546 94.988162,94.988162 0 0 1 -94.98922,94.98924 94.988162,94.988162 0 0 1 -94.98656,-94.98924 94.988162,94.988162 0 0 1 94.98656,-94.986546 z" />
      <path
         id="path476-2-6"
         style="fill:#000000;stroke-width:1.37014"
         d="M 126.37901,259.68623 A 126.13182,126.13182 0 0 0 0.24852767,385.8167 126.13182,126.13182 0 0 0 126.37901,511.94986 126.13182,126.13182 0 0 0 252.51215,385.8167 126.13182,126.13182 0 0 0 126.37901,259.68623 Z m 0,31.14392 a 94.988162,94.988162 0 0 1 94.98922,94.98655 94.988162,94.988162 0 0 1 -94.98922,94.98924 94.988162,94.988162 0 0 1 -94.986562,-94.98924 94.988162,94.988162 0 0 1 94.986562,-94.98655 z" />
      <path
         id="path476-2-7"
         style="fill:#000000;stroke-width:1.37014"
         d="M 385.79312,259.55707 A 126.13182,126.13182 0 0 0 259.66264,385.68754 126.13182,126.13182 0 0 0 385.79312,511.8207 126.13182,126.13182 0 0 0 511.92626,385.68754 126.13182,126.13182 0 0 0 385.79312,259.55707 Z m 0,31.14392 a 94.988162,94.988162 0 0 1 94.98922,94.98655 94.988162,94.988162 0 0 1 -94.98922,94.98924 94.988162,94.988162 0 0 1 -94.98656,-94.98924 94.988162,94.988162 0 0 1 94.98656,-94.98655 z" />
    </g>
  </g>
</svg>
